<?xml version="1.0" encoding="utf-8"?>
<!-- Generator: Adobe Illustrator 23.0.1, SVG Export Plug-In . SVG Version: 6.00 Build 0)  -->
<svg version="1.1"
	 id="svg2" inkscape:version="0.92.3 (2405546, 2018-03-11)" sodipodi:docname="bikepacking.svg" xmlns:cc="http://creativecommons.org/ns#" xmlns:dc="http://purl.org/dc/elements/1.1/" xmlns:inkscape="http://www.inkscape.org/namespaces/inkscape" xmlns:rdf="http://www.w3.org/1999/02/22-rdf-syntax-ns#" xmlns:sodipodi="http://sodipodi.sourceforge.net/DTD/sodipodi-0.dtd" xmlns:svg="http://www.w3.org/2000/svg"
	 xmlns="http://www.w3.org/2000/svg" xmlns:xlink="http://www.w3.org/1999/xlink" x="0px" y="0px" viewBox="0 0 487.6 272.5"
	 style="enable-background:new 0 0 487.6 272.5;" xml:space="preserve">
<style type="text/css">
	.st0{fill:#CCCCCC;}
</style>
<sodipodi:namedview  bordercolor="#666666" borderopacity="1.0" id="base" inkscape:current-layer="layer2" inkscape:cx="276.20403" inkscape:cy="113.18913" inkscape:document-units="px" inkscape:pageopacity="0.0" inkscape:pageshadow="2" inkscape:window-height="969" inkscape:window-maximized="1" inkscape:window-width="1227" inkscape:window-x="53" inkscape:window-y="27" inkscape:zoom="0.49497474" pagecolor="#ffffff" showgrid="true" showguides="false">
	<inkscape:grid  id="grid4716" type="xygrid"></inkscape:grid>
</sodipodi:namedview>
<g id="layer1" transform="translate(-4.6072,-2.4911)" inkscape:groupmode="layer" inkscape:label="Calque 1">
</g>
<g id="layer2" transform="translate(-4.6072,-2.4911)" inkscape:groupmode="layer" inkscape:label="Calque">
	<g id="g5453">
		
			<path id="path3784" inkscape:flatsided="false" inkscape:randomized="0" inkscape:rounded="0" inkscape:transform-center-x="0.006526356" inkscape:transform-center-y="0.0032502464" sodipodi:arg1="0.52359878" sodipodi:arg2="0.59665907" sodipodi:cx="235.71429" sodipodi:cy="169.50504" sodipodi:r1="206.28888" sodipodi:r2="191.62569" sodipodi:sides="43" sodipodi:type="star" class="st0" d="
			M254.6,181.5l-1.5,0.3l0.2,1.5l-1.5,0.1v1.5l-1.5-0.1l-0.2,1.5l-1.5-0.3l-0.4,1.5l-1.4-0.5l-0.6,1.4l-1.3-0.7l-0.8,1.3l-1.2-0.9
			l-1,1.2l-1.1-1.1l-1.2,1l-0.9-1.2l-1.3,0.8l-0.7-1.4l-1.4,0.6l-0.5-1.4l-1.5,0.4l-0.3-1.5l-1.5,0.2l-0.1-1.5h-1.5l0.2-1.5
			l-1.5-0.3l0.4-1.5l-1.5-0.5l0.6-1.4l-1.4-0.7l0.8-1.3l-1.3-0.9l1-1.2l-1.1-1.1l1.1-1l-0.9-1.2l1.3-0.8l-0.8-1.3l1.4-0.7l-0.6-1.4
			l1.5-0.4l-0.3-1.5l1.5-0.2l-0.1-1.5h1.5l0.1-1.5l1.5,0.2l0.3-1.5l1.5,0.4l0.5-1.4l1.4,0.6l0.7-1.3l1.3,0.8l0.9-1.2l1.1,1l1.1-1.1
			l1,1.2l1.2-0.9l0.8,1.3l1.4-0.7l0.6,1.4l1.4-0.5l0.4,1.5l1.5-0.3l0.2,1.5l1.5-0.1l-0.1,1.5l1.5,0.2l-0.3,1.5l1.5,0.4l-0.5,1.5
			l1.4,0.6l-0.7,1.4l1.3,0.8l-0.9,1.2l1.2,1l-1.1,1.1l1,1.1l-1.2,0.9l0.9,1.3l-1.3,0.8l0.7,1.4l-1.4,0.6L254.6,181.5z"/>
		<path id="path3788" inkscape:connector-curvature="0" sodipodi:nodetypes="cc" class="st0" d="M250.4,130.8L232,215.6"/>
		<path id="path3790" inkscape:connector-curvature="0" sodipodi:nodetypes="cc" class="st0" d="M220.3,218.9h24.3"/>
		<path id="path3792" inkscape:connector-curvature="0" sodipodi:nodetypes="cc" class="st0" d="M238.3,128.9h24.3"/>
		<path id="path2989" inkscape:connector-curvature="0" class="st0" d="M359.9,2.5l-39.7,0.4c-3.2,0-6.4,2-8.3,5.3s-2,8.7-0.4,12.9
			L325.9,58H205.4l-11.2-28.7l14.2-5c4.4-1.5,7.3-6.5,6.5-11.1s-5.2-8.3-9.9-8.3l-49,0.3c-4.4,0-8.5,3.3-9.6,7.5s1,9.1,4.8,11.2
			L170,34.2c1.6,0.9,3.4,1.3,5.2,1.2l10.5,27l-29.2,33.4c-15.5-10.4-34.1-16.4-54.2-16.4c-53.9,0-97.8,43.9-97.8,97.7
			s44,97.9,97.9,97.9c49.6,0,90.7-37.1,97-85h43.2c4-0.5,8.2-2.3,10.6-5.1l84.6-96.6l2.9,7.3c-26.5,17.5-44.1,47.6-44.1,81.6
			c0,53.9,43.9,97.8,97.8,97.8s97.8-43.9,97.8-97.8s-43.9-97.8-97.8-97.8c-12.7,0-24.8,2.4-35.9,6.8l-24.8-63.4l26.2-0.3
			c4.9,0,8.6,3.7,8.6,8.6c0,4.8-3.6,8.5-8.4,8.6c-2.6,0.1-5.2,1.2-7,3.1s-2.9,4.5-2.8,7.2s1.2,5.2,3.1,7s4.5,2.8,7.1,2.8
			c15.4-0.3,28-13.1,28-28.6C388.5,15.4,375.5,2.5,359.9,2.5L359.9,2.5z M213.2,78h106.9l-74,84.5L213.2,78L213.2,78z M193.9,83.4
			l33.7,86.5h-27.7c-1.8-23.8-12.1-45.3-28-61.4L193.9,83.4L193.9,83.4z M102.4,99.4c15,0,29,4.2,40.9,11.6l-53.1,60.7
			c-1.1,1.2-1.9,2.6-2.3,4.2c-1.4,3-1.1,6.8,0.7,9.6c1.8,2.8,5.1,4.6,8.5,4.5h82c-6.1,37-38,65-76.8,65c-43.1,0-77.8-34.7-77.8-77.8
			S59.3,99.4,102.4,99.4L102.4,99.4z M394.4,99.4c43.1,0,77.8,34.7,77.8,77.8S437.4,255,394.4,255s-77.8-34.7-77.8-77.8
			c0-25.7,12.3-48.4,31.5-62.6l8.2,21c11.2,28.7,29.7,48.6,29.7,48.6c1.7,2,4.3,3.3,7,3.4c2.7,0.1,5.4-0.8,7.3-2.6s3.2-4.5,3.2-7.1
			s-1-5.3-2.9-7.3s-16.1-17.6-25.8-42.3l-9.2-23.5C374.6,101.3,384.2,99.4,394.4,99.4L394.4,99.4z M158.8,123.6
			c11.7,12.3,19.4,28.4,21,46.4h-61.6L158.8,123.6z"/>
		<path id="rect3790-5-7" inkscape:connector-curvature="0" sodipodi:nodetypes="cssssssssc" class="st0" d="M384.6-5l11.8,17.7
			c3.2,4.8-2.1,7.7-8.7,10L344.1,38c-6.6,2.3-14.5,0.4-17.7-4.4l-7.9-11.9c-3.2-4.8-0.4-10.4,6.2-12.8L369-7.2
			C375.6-9.6,381.4-9.8,384.6-5L384.6-5z"/>
		<path id="rect3790" inkscape:connector-curvature="0" sodipodi:nodetypes="cssssssssc" class="st0" d="M234.6,78h46
			c12.4,0,44.8-5,42.2-1.2l-10.5,14.9c-2.7,3.8-11.3,10.9-23.5,13.1l-59.5,10.8c-12.2,2.2-19.7-15.1-21.7-19.3l-8.2-17.1
			C197.4,74.8,222.2,78,234.6,78L234.6,78z"/>
		<path id="path3793" inkscape:connector-curvature="0" sodipodi:nodetypes="ccssssssc" class="st0" d="M69,22.2
			c-1-9.7-0.9-18.6,7.4-21.6c0,0,18-11.2,29.3-4.7l42.8,24.7c11.3,6.5,27.7,16.5,30.8,24.6l4.3,11.3c3.1,8.1-30.9,13.5-43,8.7
			L94.2,46.8C82.1,42,69,22.2,69,22.2z"/>
		<circle id="path5413" class="st0" cx="373.2" cy="45" r="30"/>
	</g>
</g>
</svg>
